<svg xmlns="http://www.w3.org/2000/svg" viewBox="0 0 400 600">
    <path d="M79.99612828 5.87115412l-6.08102118 3.5337568-63.14960818 36.69751835-8.76568987 5.09452876v436.62154894l13.54665496 3.21666995 87.47721611 20.76566562 6.84202963 1.6277125 6.077498-3.5337568 59.70745424-34.69987118 38.99815962 92.13839284 3.47386262 8.21607265 8.67761019 2.05754136 87.47721611 20.76566562 6.83850645 1.6277125 6.08102118-3.5337568 63.14960818-36.70104153 8.76568987-5.09100557V118.0529592l-13.54665496-3.21666996-87.47369292-20.7691888-6.84202963-1.62418933-6.077498 3.5337568-59.70745425 34.69987119-38.99815961-92.14191603-3.47738581-8.21254947-8.674087-2.06106454L86.8381579 7.49534344zm2.77274837 18.76449527L170.24256957 45.401315l60.6305293 143.2527934v-40.74918368l63.14960819-36.69751835 87.47369292 20.76566562v412.56170323l-63.15313137 36.70104154-87.47369292-20.76566563-60.6305293-143.25631657v40.75270686l-63.14960819 36.69751835-87.47369292-20.76918881V61.33669092z"/>
    <path d="M294.02270706 523.76770034L107.0894382 82.10447046 19.61574528 61.33528165v412.56170323l87.47369292 20.76566562V268.00896864L230.8695757 560.46874187l87.47369292 20.76918881 63.15313137-36.70104153zM294.02270706 337.86108824V111.20740638l-63.14960818 36.69751835v40.75270686z"/>
</svg>
